# xmcd CD database file
#
# Track frame offsets:
#	150
#	23390
#	52805
#	60085
#	86295
#	106522
#	130895
#	160755
#	196380
#	235182
#	260030
#	293950
#	299967
#
# Disc length: 4330 seconds
#
# Revision: 0
# Processed by: cddbd v1.5.1PL2 Copyright (c) Steve Scherf et al.
# Submitted via: CDex 1.51
#
DISCID=a910e80d
DTITLE=Tony Janflone Jr. - Pieces
DYEAR=1900
DGENRE=Jazz
TTITLE0=Somethings Got To Give
TTITLE1=Gone With The Wind
TTITLE2=V.V. The Beginning
TTITLE3=Victor Vicious
TTITLE4=I'd Rather Drink Muddy Water
TTITLE5=Compassionate Eyes
TTITLE6=Lost Without Your Love
TTITLE7=Wish You Didn't Have To Go
TTITLE8=In Search Of
TTITLE9=The Quiet Zone
TTITLE10=The Meeting
TTITLE11=Precious One Part 2
TTITLE12=Hey Wake Up !
EXTD=
EXTT0=
EXTT1=
EXTT2=
EXTT3=
EXTT4=
EXTT5=
EXTT6=
EXTT7=
EXTT8=
EXTT9=
EXTT10=
EXTT11=
EXTT12=
PLAYORDER=
